<svg width="1096" height="346" viewBox="0 0 1096 346" fill="none" xmlns="http://www.w3.org/2000/svg">
<path d="M222.484 65.6367C232.13 65.6367 241.044 70.7831 245.867 79.1367L311.029 192C315.852 200.354 315.852 210.646 311.029 219L245.867 331.863C241.044 340.217 232.13 345.363 222.484 345.363H92.1621C82.516 345.363 73.6024 340.217 68.7793 331.863L3.61719 219C-1.20579 210.646 -1.20579 200.354 3.61719 192L68.7793 79.1367C73.6024 70.783 82.516 65.6367 92.1621 65.6367H222.484ZM210.413 135.942C204.212 131.266 195.611 133.955 191.969 140.814C189.237 145.959 191.262 152.281 195.892 155.815C204.396 162.307 211.195 170.852 215.606 180.72C221.461 193.816 222.774 208.492 219.339 222.42C215.903 236.348 207.915 248.729 196.642 257.601C185.368 266.472 171.455 271.325 157.11 271.389C142.765 271.453 128.81 266.724 117.458 257.954C106.106 249.184 98.0071 236.874 94.4473 222.978C90.8876 209.081 92.0703 194.394 97.8076 181.246C102.131 171.339 108.853 162.734 117.299 156.167C121.897 152.591 123.866 146.251 121.088 141.131C117.384 134.305 108.759 131.691 102.601 136.423C90.7353 145.539 81.2958 157.551 75.251 171.403C67.3208 189.576 65.687 209.877 70.6074 229.085C75.5278 248.293 86.7213 265.308 102.412 277.43C118.103 289.552 137.393 296.087 157.221 295.998C177.048 295.909 196.278 289.203 211.86 276.941C227.442 264.68 238.484 247.565 243.232 228.314C247.981 209.064 246.165 188.778 238.073 170.677C231.905 156.879 222.359 144.952 210.413 135.942ZM156.323 116C149.42 116 143.823 121.597 143.823 128.5V207.5C143.823 214.403 149.42 220 156.323 220C163.227 220 168.823 214.403 168.823 207.5V128.5C168.823 121.597 163.227 116 156.323 116Z" fill="#6DB33F"/>
<g clip-path="url(#paint0_diamond_87_34_clip_path)" data-figma-skip-parse="true"><g transform="matrix(0.197087 0.0389551 -0.0389551 0.197087 173.824 103)"><rect x="0" y="0" width="1111.19" height="707.638" fill="url(#paint0_diamond_87_34)" opacity="1" shape-rendering="crispEdges"/><rect x="0" y="0" width="1111.19" height="707.638" transform="scale(1 -1)" fill="url(#paint0_diamond_87_34)" opacity="1" shape-rendering="crispEdges"/><rect x="0" y="0" width="1111.19" height="707.638" transform="scale(-1 1)" fill="url(#paint0_diamond_87_34)" opacity="1" shape-rendering="crispEdges"/><rect x="0" y="0" width="1111.19" height="707.638" transform="scale(-1)" fill="url(#paint0_diamond_87_34)" opacity="1" shape-rendering="crispEdges"/></g></g><path d="M272.185 12.183C273.809 7.91966 279.84 7.91966 281.463 12.183C296.582 51.8865 327.938 83.2426 367.641 98.3609C371.905 99.9844 371.905 106.016 367.641 107.639C327.938 122.757 296.582 154.113 281.463 193.817C279.84 198.08 273.809 198.08 272.185 193.817C257.067 154.113 225.711 122.757 186.007 107.639C181.744 106.016 181.744 99.9844 186.007 98.3609C225.711 83.2426 257.067 51.8865 272.185 12.183Z" data-figma-gradient-fill="{&#34;type&#34;:&#34;GRADIENT_DIAMOND&#34;,&#34;stops&#34;:[{&#34;color&#34;:{&#34;r&#34;:0.95686274766921997,&#34;g&#34;:0.28627452254295349,&#34;b&#34;:0.29019609093666077,&#34;a&#34;:1.0},&#34;position&#34;:0.0},{&#34;color&#34;:{&#34;r&#34;:0.19607843458652496,&#34;g&#34;:0.52941179275512695,&#34;b&#34;:1.0,&#34;a&#34;:1.0},&#34;position&#34;:1.0}],&#34;stopsVar&#34;:[{&#34;color&#34;:{&#34;r&#34;:0.95686274766921997,&#34;g&#34;:0.28627452254295349,&#34;b&#34;:0.29019609093666077,&#34;a&#34;:1.0},&#34;position&#34;:0.0},{&#34;color&#34;:{&#34;r&#34;:0.19607843458652496,&#34;g&#34;:0.52941179275512695,&#34;b&#34;:1.0,&#34;a&#34;:1.0},&#34;position&#34;:1.0}],&#34;transform&#34;:{&#34;m00&#34;:394.17306518554688,&#34;m01&#34;:-77.910270690917969,&#34;m02&#34;:15.692821502685547,&#34;m10&#34;:77.910270690917969,&#34;m11&#34;:394.17306518554688,&#34;m12&#34;:-133.04167175292969},&#34;opacity&#34;:1.0,&#34;blendMode&#34;:&#34;NORMAL&#34;,&#34;visible&#34;:true}"/>
<path d="M350.507 284.905C348.013 283.014 347.409 281.103 348.697 279.171L353.344 272.17C354.873 269.876 357.106 269.755 360.044 271.808C362.297 273.377 365.235 275.007 368.856 276.697C372.518 278.346 376.36 279.171 380.384 279.171C383.201 279.171 385.917 278.849 388.532 278.205C391.148 277.562 393.14 276.314 394.508 274.463C395.876 272.612 396.56 270.419 396.56 267.884C396.56 266.074 396.258 264.484 395.654 263.116C395.051 261.748 394.065 260.621 392.697 259.736C391.329 258.851 389.921 258.107 388.472 257.503C385.937 256.457 382.738 255.431 378.875 254.425C375.053 253.379 371.27 252.131 367.528 250.683C364.188 249.395 361.13 247.625 358.354 245.371C355.577 243.118 353.425 240.583 351.896 237.766C350.367 234.95 349.602 231.187 349.602 226.48C349.602 220.886 351.413 216.098 355.034 212.115C358.656 208.131 362.82 205.576 367.528 204.449C372.236 203.323 376.984 202.759 381.772 202.759C386.52 202.759 391.409 203.484 396.439 204.932C401.509 206.381 405.332 208.191 407.907 210.364C410.442 212.497 411.066 214.428 409.778 216.158L404.889 222.737C403.239 224.991 401.026 225.172 398.25 223.281C396.479 222.073 394.045 220.725 390.947 219.237C387.889 217.748 384.69 217.003 381.35 217.003C378.976 217.003 376.783 217.205 374.771 217.607C372.799 218.009 371.049 218.975 369.52 220.504C367.991 222.033 367.226 223.924 367.226 226.178C367.226 228.351 367.79 230.121 368.916 231.489C370.043 232.817 371.29 233.823 372.658 234.507C374.027 235.151 375.415 235.694 376.823 236.137C381.169 237.545 385.052 238.792 388.472 239.879C391.892 240.925 395.051 242.092 397.948 243.379C401.972 245.19 405.05 247.001 407.183 248.812C409.315 250.622 411.066 253.097 412.434 256.236C413.842 259.374 414.546 263.116 414.546 267.462C414.546 273.9 412.494 279.232 408.39 283.457C404.285 287.641 399.718 290.337 394.689 291.544C389.699 292.792 384.83 293.415 380.082 293.415C373.081 293.415 367.387 292.731 363.001 291.363C358.615 290.035 354.451 287.883 350.507 284.905ZM432.653 291.363C429.837 291.363 428.428 289.854 428.428 286.837V209.338C428.428 206.32 429.837 204.811 432.653 204.811H455.227C469.712 204.811 479.752 207.165 485.345 211.873C490.978 216.581 493.795 223.26 493.795 231.912C493.795 240.563 490.978 247.242 485.345 251.95C479.752 256.658 469.712 259.012 455.227 259.012H446.053V286.837C446.053 289.854 444.644 291.363 441.828 291.363H432.653ZM446.053 244.285H455.166C463.214 244.285 468.686 243.339 471.584 241.448C474.481 239.517 475.929 236.338 475.929 231.912C475.929 227.485 474.481 224.327 471.584 222.436C468.686 220.504 463.214 219.538 455.166 219.538H446.053V244.285ZM512.807 291.363C509.991 291.363 508.582 289.854 508.582 286.837V209.338C508.582 206.32 509.991 204.811 512.807 204.811H540.753C553.186 204.811 562.26 206.743 567.974 210.606C573.687 214.428 576.544 220.665 576.544 229.316C576.544 235.754 574.231 240.885 569.603 244.707C564.976 248.53 559.101 251.065 551.979 252.312V252.433C555.842 253.882 558.759 255.893 560.731 258.469C562.702 261.044 564.312 263.297 565.559 265.229L578.838 286.173C581.051 289.633 580.286 291.363 576.544 291.363H566.042C563.829 291.363 562.018 290.176 560.61 287.802L548.418 267.462C547.09 265.289 544.656 262.915 541.115 260.34C537.614 257.724 534.133 256.417 530.673 256.417H526.207V286.837C526.207 289.854 524.798 291.363 521.982 291.363H512.807ZM526.207 241.448H537.011C545.058 241.448 550.772 240.543 554.152 238.732C557.572 236.881 559.282 233.964 559.282 229.98C559.282 225.635 557.632 222.818 554.333 221.53C551.074 220.202 546.265 219.538 539.908 219.538H526.207V241.448ZM598.997 291.363C596.18 291.363 594.772 289.854 594.772 286.837V209.338C594.772 206.32 596.18 204.811 598.997 204.811H608.171C610.988 204.811 612.396 206.32 612.396 209.338V286.837C612.396 289.854 610.988 291.363 608.171 291.363H598.997ZM635.936 291.363C633.119 291.363 631.711 289.854 631.711 286.837V209.338C631.711 206.32 633.119 204.811 635.936 204.811H644.868C648.329 204.811 650.944 206.22 652.715 209.036L683.497 258.469H683.919C683.718 256.054 683.618 253.64 683.618 251.226V209.338C683.618 206.32 685.026 204.811 687.843 204.811H697.017C699.834 204.811 701.242 206.32 701.242 209.338V286.837C701.242 289.854 699.834 291.363 697.017 291.363H688.688C685.227 291.363 682.612 289.955 680.841 287.138L649.456 236.801H649.033C649.234 239.215 649.335 241.629 649.335 244.043V286.837C649.335 289.854 647.927 291.363 645.11 291.363H635.936ZM716.09 248.087C716.09 234.205 719.711 223.18 726.954 215.012C734.197 206.843 744.457 202.759 757.736 202.759C765.743 202.759 772.02 203.785 776.567 205.837C781.155 207.89 785.178 211.068 788.639 215.374C790.731 217.989 790.671 220.021 788.458 221.47L781.577 225.936C779.565 227.264 777.412 226.681 775.119 224.186C773.228 222.134 770.833 220.424 767.936 219.056C765.039 217.688 761.84 217.003 758.34 217.003C749.89 217.003 743.874 219.679 740.293 225.031C736.712 230.342 734.921 238.028 734.921 248.087C734.921 258.147 736.712 265.852 740.293 271.204C743.874 276.515 749.89 279.171 758.34 279.171C762.444 279.171 765.985 278.769 768.962 277.964C771.94 277.119 774.757 275.61 777.412 273.437V262.633H764.315C761.297 262.633 759.788 261.326 759.788 258.71V251.588C759.788 248.973 761.297 247.665 764.315 247.665H790.51C793.528 247.665 795.037 248.973 795.037 251.588V282.249C789.403 286.394 783.71 289.291 777.956 290.941C772.242 292.591 765.502 293.415 757.736 293.415C744.659 293.415 734.438 289.331 727.075 281.163C719.751 272.995 716.09 261.969 716.09 248.087ZM858.532 291.363C855.313 291.363 853.704 289.854 853.704 286.837V209.338C853.704 206.32 855.313 204.811 858.532 204.811H879.054C894.505 204.811 904.927 206.723 910.318 210.545C915.751 214.328 918.467 220.162 918.467 228.049C918.467 233.561 916.435 237.827 912.371 240.844C908.347 243.862 904.444 245.613 900.661 246.096V246.277C904.323 246.518 908.628 248.369 913.578 251.829C918.527 255.29 921.002 260.179 921.002 266.496C921.002 273.9 917.984 279.895 911.948 284.483C905.912 289.07 895.954 291.363 882.071 291.363H858.532ZM871.328 276.636H880.14C888.67 276.636 894.465 275.892 897.523 274.403C900.621 272.914 902.17 269.896 902.17 265.349C902.17 261.084 900.38 258.147 896.799 256.537C893.258 254.888 887.705 254.063 880.14 254.063H871.328V276.636ZM871.328 239.818H879.235C884.425 239.818 889.274 238.913 893.781 237.102C898.328 235.292 900.601 232.475 900.601 228.652C900.601 225.675 899.334 223.421 896.799 221.892C894.304 220.323 888.449 219.538 879.235 219.538H871.328V239.818ZM932.53 248.087C932.53 234.205 936.111 223.18 943.273 215.012C950.436 206.843 960.656 202.759 973.935 202.759C987.213 202.759 997.434 206.843 1004.6 215.012C1011.76 223.18 1015.34 234.205 1015.34 248.087C1015.34 261.969 1011.76 272.995 1004.6 281.163C997.434 289.331 987.213 293.415 973.935 293.415C960.656 293.415 950.436 289.331 943.273 281.163C936.111 272.995 932.53 261.969 932.53 248.087ZM951.361 248.087C951.361 258.147 953.152 265.852 956.733 271.204C960.354 276.515 966.088 279.171 973.935 279.171C981.781 279.171 987.495 276.515 991.076 271.204C994.698 265.852 996.508 258.147 996.508 248.087C996.508 238.028 994.698 230.342 991.076 225.031C987.495 219.679 981.781 217.003 973.935 217.003C966.088 217.003 960.354 219.679 956.733 225.031C953.152 230.342 951.361 238.028 951.361 248.087ZM1027.11 220.263C1024.09 220.263 1022.58 218.955 1022.58 216.34V208.735C1022.58 206.119 1024.09 204.811 1027.11 204.811H1089.16C1092.17 204.811 1093.68 206.119 1093.68 208.735V216.34C1093.68 218.955 1092.17 220.263 1089.16 220.263H1066.94V288.044C1066.94 290.257 1065.94 291.363 1063.93 291.363H1052.34C1050.33 291.363 1049.32 290.257 1049.32 288.044V220.263H1027.11Z" fill="#EDEA1A"/>
<defs>
<clipPath id="paint0_diamond_87_34_clip_path"><path d="M272.185 12.183C273.809 7.91966 279.84 7.91966 281.463 12.183C296.582 51.8865 327.938 83.2426 367.641 98.3609C371.905 99.9844 371.905 106.016 367.641 107.639C327.938 122.757 296.582 154.113 281.463 193.817C279.84 198.08 273.809 198.08 272.185 193.817C257.067 154.113 225.711 122.757 186.007 107.639C181.744 106.016 181.744 99.9844 186.007 98.3609C225.711 83.2426 257.067 51.8865 272.185 12.183Z"/></clipPath><linearGradient id="paint0_diamond_87_34" x1="0" y1="0" x2="500" y2="500" gradientUnits="userSpaceOnUse">
<stop stop-color="#F4494A"/>
<stop offset="1" stop-color="#3287FF"/>
</linearGradient>
</defs>
</svg>
