<svg width="401" height="400" viewBox="0 0 401 400" fill="none" xmlns="http://www.w3.org/2000/svg">
<path d="M232.484 92.6367C242.13 92.6367 251.044 97.7831 255.867 106.137L321.029 219C325.852 227.354 325.852 237.646 321.029 246L255.867 358.863C251.044 367.217 242.13 372.363 232.484 372.363H102.162C92.5161 372.363 83.6025 367.217 78.7793 358.863L13.6172 246C8.79426 237.646 8.79426 227.354 13.6172 219L78.7793 106.137C83.6025 97.783 92.5161 92.6367 102.162 92.6367H232.484ZM220.413 162.942C214.212 158.266 205.611 160.955 201.969 167.814C199.237 172.959 201.262 179.281 205.892 182.815C214.396 189.307 221.195 197.852 225.606 207.72C231.461 220.816 232.774 235.492 229.339 249.42C225.903 263.348 217.915 275.729 206.642 284.601C195.368 293.472 181.455 298.325 167.11 298.389C152.765 298.453 138.81 293.724 127.458 284.954C116.106 276.184 108.007 263.874 104.447 249.978C100.888 236.081 102.07 221.394 107.808 208.246C112.131 198.339 118.853 189.734 127.299 183.167C131.897 179.591 133.866 173.251 131.088 168.131C127.384 161.304 118.759 158.691 112.601 163.423C100.735 172.539 91.2959 184.551 85.251 198.403C77.3208 216.576 75.6871 236.877 80.6075 256.085C85.5279 275.293 96.7212 292.308 112.412 304.43C128.103 316.552 147.393 323.087 167.221 322.998C187.048 322.909 206.278 316.203 221.86 303.941C237.442 291.68 248.484 274.565 253.232 255.314C257.981 236.064 256.165 215.778 248.073 197.677C241.905 183.879 232.359 171.952 220.413 162.942ZM166.323 143C159.42 143 153.823 148.596 153.823 155.5V234.5C153.823 241.404 159.42 247 166.323 247C173.227 247 178.823 241.403 178.823 234.5V155.5C178.823 148.597 173.227 143 166.323 143Z" fill="#6DB33F"/>
<g clip-path="url(#paint0_diamond_87_23_clip_path)" data-figma-skip-parse="true"><g transform="matrix(0.197087 0.0389551 -0.0389551 0.197087 183.824 130)"><rect x="0" y="0" width="1111.19" height="707.638" fill="url(#paint0_diamond_87_23)" opacity="1" shape-rendering="crispEdges"/><rect x="0" y="0" width="1111.19" height="707.638" transform="scale(1 -1)" fill="url(#paint0_diamond_87_23)" opacity="1" shape-rendering="crispEdges"/><rect x="0" y="0" width="1111.19" height="707.638" transform="scale(-1 1)" fill="url(#paint0_diamond_87_23)" opacity="1" shape-rendering="crispEdges"/><rect x="0" y="0" width="1111.19" height="707.638" transform="scale(-1)" fill="url(#paint0_diamond_87_23)" opacity="1" shape-rendering="crispEdges"/></g></g><path d="M282.185 39.183C283.809 34.9197 289.84 34.9197 291.463 39.183V39.183C306.582 78.8865 337.938 110.243 377.641 125.361V125.361C381.905 126.984 381.905 133.016 377.641 134.639V134.639C337.938 149.757 306.582 181.113 291.463 220.817V220.817C289.84 225.08 283.809 225.08 282.185 220.817V220.817C267.067 181.113 235.711 149.757 196.007 134.639V134.639C191.744 133.016 191.744 126.984 196.007 125.361V125.361C235.711 110.243 267.067 78.8865 282.185 39.183V39.183Z" data-figma-gradient-fill="{&#34;type&#34;:&#34;GRADIENT_DIAMOND&#34;,&#34;stops&#34;:[{&#34;color&#34;:{&#34;r&#34;:0.95686274766921997,&#34;g&#34;:0.28627452254295349,&#34;b&#34;:0.29019609093666077,&#34;a&#34;:1.0},&#34;position&#34;:0.0},{&#34;color&#34;:{&#34;r&#34;:0.19607843458652496,&#34;g&#34;:0.52941179275512695,&#34;b&#34;:1.0,&#34;a&#34;:1.0},&#34;position&#34;:1.0}],&#34;stopsVar&#34;:[{&#34;color&#34;:{&#34;r&#34;:0.95686274766921997,&#34;g&#34;:0.28627452254295349,&#34;b&#34;:0.29019609093666077,&#34;a&#34;:1.0},&#34;position&#34;:0.0},{&#34;color&#34;:{&#34;r&#34;:0.19607843458652496,&#34;g&#34;:0.52941179275512695,&#34;b&#34;:1.0,&#34;a&#34;:1.0},&#34;position&#34;:1.0}],&#34;transform&#34;:{&#34;m00&#34;:394.17306518554688,&#34;m01&#34;:-77.910270690917969,&#34;m02&#34;:25.692821502685547,&#34;m10&#34;:77.910270690917969,&#34;m11&#34;:394.17306518554688,&#34;m12&#34;:-106.04167938232422},&#34;opacity&#34;:1.0,&#34;blendMode&#34;:&#34;NORMAL&#34;,&#34;visible&#34;:true}"/>
<defs>
<clipPath id="paint0_diamond_87_23_clip_path"><path d="M282.185 39.183C283.809 34.9197 289.84 34.9197 291.463 39.183V39.183C306.582 78.8865 337.938 110.243 377.641 125.361V125.361C381.905 126.984 381.905 133.016 377.641 134.639V134.639C337.938 149.757 306.582 181.113 291.463 220.817V220.817C289.84 225.08 283.809 225.08 282.185 220.817V220.817C267.067 181.113 235.711 149.757 196.007 134.639V134.639C191.744 133.016 191.744 126.984 196.007 125.361V125.361C235.711 110.243 267.067 78.8865 282.185 39.183V39.183Z"/></clipPath><linearGradient id="paint0_diamond_87_23" x1="0" y1="0" x2="500" y2="500" gradientUnits="userSpaceOnUse">
<stop stop-color="#F4494A"/>
<stop offset="1" stop-color="#3287FF"/>
</linearGradient>
</defs>
</svg>
